# xmcd
#
# Track frame offsets: 
#        150
#        38115
#        63235
#        85615
#        101551
#        111846
#        124056
#        136127
#        152123
#        166400
#        175374
#        186840
#        199130
#        218054
#        230863
#        240768
#        255726
#        270435
#        288941
#        302596
#
# Disc length: 4323 seconds
#
# Revision: 2
# Processed by: cddbd v1.5.2PL0 Copyright (c) Steve Scherf et al.
# Submitted via: ExactAudioCopy v0.95b4
#
DISCID=1110e114
DTITLE=Irish Folk Festival - 2007 Irish Folk Festival [CD 2)
DYEAR=2007
DGENRE=Celtic
TTITLE0=The Gardyne Chamber Ensemble - Reel Around the World
TTITLE1=The Gardyne Chamber Ensemble - Riverdance
TTITLE2=The Gardyne Chamber Ensemble - Lift The Wings
TTITLE3=The Gardyne Chamber Ensemble - The Coolin
TTITLE4=The Gardyne Chamber Ensemble - The Butterfly
TTITLE5=The Gardyne Chamber Ensemble - The Raggle Traggle Gypsies
TTITLE6=Waxies  Dargle - Down By The Sally's Gardens
TTITLE7=The Gardyne Chamber Ensemble - Four Green Field
TTITLE8=The Gardyne Chamber Ensemble - Carrick Fergus
TTITLE9=The Gardyne Chamber Ensemble - The Rocky Road To Dublin
TTITLE10=Claire Hamiltonfeat. Gwyneth Keen - The Last Rose Of Summer
TTITLE11=The Gardyne Chamber Ensemble - The Curragh Of Kildare
TTITLE12=The Gardyne Chamber Ensemble - Cry On The Celts
TTITLE13=The Gardyne Chamber Ensemble - Suil A Ruin
TTITLE14=The Gardyne Chamber Ensemble - The Gypsy
TTITLE15=The Gardyne Chamber Ensemble - The Galway Races
TTITLE16=The Gardyne Chamber Ensemble - Stolen Kiss
TTITLE17=The Gardyne Chamber Ensemble - Our Wedding Day
TTITLE18=The Gardyne Chamber Ensemble - Fiery Nights
TTITLE19=The Gardyne Chamber Ensemble - Lord Of The Dance
EXTD=
EXTT0=
EXTT1=
EXTT2=
EXTT3=
EXTT4=
EXTT5=
EXTT6=
EXTT7=
EXTT8=
EXTT9=
EXTT10=
EXTT11=
EXTT12=
EXTT13=
EXTT14=
EXTT15=
EXTT16=
EXTT17=
EXTT18=
EXTT19=
PLAYORDER=
